<svg width="65" height="25" viewBox="0 0 61 20" fill="none" xmlns="http://www.w3.org/2000/svg">
<g clip-path="url(#clip0_1013_4168)">
<path d="M26.0007 10.525C26.0007 13.4024 23.7497 15.5227 20.9872 15.5227C18.2246 15.5227 15.9736 13.4024 15.9736 10.525C15.9736 7.64755 18.2246 5.52722 20.9872 5.52722C23.7497 5.52722 26.0007 7.62727 26.0007 10.525ZM23.806 10.525C23.806 8.72686 22.5013 7.49658 20.9872 7.49658C19.473 7.49658 18.1683 8.72686 18.1683 10.525C18.1683 12.3231 19.473 13.5534 20.9872 13.5534C22.5013 13.5534 23.806 12.3028 23.806 10.525Z" fill="#EA4335"/>
<path d="M36.8161 10.525C36.8161 13.4024 34.5651 15.5227 31.8026 15.5227C29.0401 15.5227 26.7891 13.4024 26.7891 10.525C26.7891 7.64755 29.0401 5.52722 31.8026 5.52722C34.5651 5.52722 36.8161 7.62727 36.8161 10.525ZM34.6214 10.525C34.6214 8.72686 33.3168 7.49658 31.8026 7.49658C30.2884 7.49658 28.9837 8.72686 28.9837 10.525C28.9837 12.3231 30.2884 13.5534 31.8026 13.5534C33.3168 13.5534 34.6214 12.3028 34.6214 10.525Z" fill="#FBBC05"/>
<path d="M47.1815 5.82916V14.8017C47.1815 18.4925 45.0048 20 42.4316 20C40.0093 20 38.5515 18.3799 38.0017 17.0549L39.9124 16.2595C40.2527 17.073 41.0864 18.0329 42.4293 18.0329C44.0765 18.0329 45.0972 17.0166 45.0972 15.1036V14.3848H45.0206C44.5294 14.9909 43.583 15.5205 42.3888 15.5205C39.8899 15.5205 37.6006 13.3438 37.6006 10.543C37.6006 7.74218 39.8899 5.52722 42.3888 5.52722C43.5808 5.52722 44.5271 6.05674 45.0206 6.64484H45.0972V5.83141H47.1815V5.82916ZM45.2527 10.543C45.2527 8.78319 44.0787 7.49658 42.5848 7.49658C41.0909 7.49658 39.802 8.78319 39.802 10.543C39.802 12.3028 41.0706 13.5534 42.5848 13.5534C44.099 13.5534 45.2527 12.2848 45.2527 10.543Z" fill="#4285F4"/>
<path d="M50.6172 0.570068V15.2163H48.4766V0.570068H50.6172Z" fill="#34A853"/>
<path d="M58.9591 12.1699L60.6625 13.3056C60.1127 14.119 58.7878 15.5205 56.4985 15.5205C53.6594 15.5205 51.5391 13.3258 51.5391 10.5228C51.5391 7.55071 53.6774 5.52502 56.2529 5.52502C58.8284 5.52502 60.115 7.58902 60.5296 8.70438L60.7572 9.27221L54.0762 12.0392C54.5877 13.0419 55.3831 13.5534 56.4985 13.5534C57.6139 13.5534 58.3913 13.0036 58.9591 12.1699ZM53.7157 10.3718L58.1817 8.51736C57.9361 7.89321 57.197 7.45833 56.3273 7.45833C55.2119 7.45833 53.6594 8.44301 53.7157 10.3718Z" fill="#EA4335"/>
<path d="M7.87066 9.22488V7.10455H15.0158C15.0856 7.47409 15.1217 7.91122 15.1217 8.38441C15.1217 9.97521 14.6868 11.9423 13.2853 13.3438C11.922 14.7634 10.1803 15.5205 7.87292 15.5205C3.59621 15.5205 0 12.037 0 7.76025C0 3.48355 3.59621 0 7.87292 0C10.2388 0 11.9243 0.928346 13.1906 2.13835L11.6945 3.63452C10.7864 2.78278 9.55611 2.12032 7.87066 2.12032C4.74763 2.12032 2.30509 4.63722 2.30509 7.76025C2.30509 10.8833 4.74763 13.4002 7.87066 13.4002C9.89635 13.4002 11.05 12.5868 11.7891 11.8477C12.3885 11.2483 12.7828 10.3921 12.9383 9.22262H7.87066V9.22488Z" fill="#4285F4"/>
</g>
<defs>
<clipPath id="clip0_1013_4168">
<rect width="60.7571" height="20" fill="white"/>
</clipPath>
</defs>
</svg>
