<svg width="38" height="40" viewBox="0 0 38 40" fill="none" xmlns="http://www.w3.org/2000/svg">
<path d="M37.4496 24.1452C37.4496 21.3249 36.6763 18.6879 35.3343 16.4274C35.9534 12.036 34.7969 8.0167 31.8067 5.68022C30.6323 4.76172 29.2736 4.18291 27.8064 3.91808C25.4085 1.41064 22.4183 -0.0553849 19.1991 0.00160241C16.9665 0.0418288 14.8703 0.811717 13.0277 2.14254C10.337 2.14701 7.77483 2.88002 5.59143 4.41868C-1.475 9.40228 -1.89961 20.9595 4.63717 30.2295C11.1773 39.5005 21.7881 42.322 29.4658 38.0524C30.8245 37.2959 31.9308 36.2858 32.7945 35.0857C35.6953 32.2855 37.4485 28.3601 37.4485 24.1452" fill="white"/>
<g style="mix-blend-mode:multiply">
<mask id="mask0_1179_4604" style="mask-type:luminance" maskUnits="userSpaceOnUse" x="0" y="2" width="36" height="38">
<path d="M35.1791 2.14355H0V39.9999H35.1791V2.14355Z" fill="white"/>
</mask>
<g mask="url(#mask0_1179_4604)">
<mask id="mask1_1179_4604" style="mask-type:luminance" maskUnits="userSpaceOnUse" x="0" y="2" width="36" height="38">
<path d="M30.2283 12.1789C36.7695 21.4511 37.1427 33.7815 29.4662 38.0522C21.7886 42.3229 11.1777 39.5026 4.63761 30.2305C-1.90029 20.9594 -1.47456 9.40214 5.59187 4.41855C12.6628 -0.566169 23.6915 2.90894 30.2283 12.1789Z" fill="white"/>
</mask>
<g mask="url(#mask1_1179_4604)">
<path d="M18.8872 -20.0441L-23.2998 19.489L16.3541 61.8048L58.541 22.2717L18.8872 -20.0441Z" fill="url(#paint0_linear_1179_4604)"/>
</g>
</g>
</g>
<g style="mix-blend-mode:multiply">
<mask id="mask2_1179_4604" style="mask-type:luminance" maskUnits="userSpaceOnUse" x="5" y="0" width="29" height="38">
<path d="M33.3954 0.000488281H5.68164V37.5685H33.3954V0.000488281Z" fill="white"/>
</mask>
<g mask="url(#mask2_1179_4604)">
<mask id="mask3_1179_4604" style="mask-type:luminance" maskUnits="userSpaceOnUse" x="5" y="0" width="29" height="38">
<path d="M33.3908 18.5348C33.5752 28.9087 27.5267 37.4311 19.8759 37.5686C12.2251 37.706 5.87152 29.4082 5.68492 19.0365C5.49719 8.66149 11.5468 0.140203 19.1999 0.00388048C26.8484 -0.13356 33.2031 8.16312 33.3908 18.5348Z" fill="white"/>
</mask>
<g mask="url(#mask3_1179_4604)">
<path d="M47.5434 5.7126L29.237 47.643L-8.4707 31.8586L9.83675 -10.0718L47.5434 5.7126Z" fill="url(#paint1_linear_1179_4604)"/>
</g>
</g>
</g>
<g style="mix-blend-mode:multiply">
<mask id="mask4_1179_4604" style="mask-type:luminance" maskUnits="userSpaceOnUse" x="7" y="3" width="29" height="32">
<path d="M35.498 3.74707H7.20215V34.385H35.498V3.74707Z" fill="white"/>
</mask>
<g mask="url(#mask4_1179_4604)">
<mask id="mask5_1179_4604" style="mask-type:luminance" maskUnits="userSpaceOnUse" x="7" y="3" width="29" height="32">
<path d="M30.88 26.5106C25.103 33.9033 16.1572 36.5616 10.8953 32.4495C5.62902 28.3375 6.04582 19.0117 11.8194 11.6201C17.5975 4.2274 26.5478 1.56799 31.8074 5.68002C37.0715 9.79204 36.6547 19.119 30.88 26.5106Z" fill="white"/>
</mask>
<g mask="url(#mask5_1179_4604)">
<path d="M36.9161 -0.640448L3.1709 1.74292L5.78611 38.7707L39.5313 36.3873L36.9161 -0.640448Z" fill="url(#paint2_linear_1179_4604)"/>
</g>
</g>
</g>
<path d="M37.4495 24.1453C37.4495 32.2554 30.9742 39.2961 22.2953 39.2961C13.6165 39.2961 7.14453 32.5124 7.14453 24.1453C7.14453 15.7783 13.9294 8.99341 22.2953 8.99341C30.6613 8.99341 37.4495 15.7771 37.4495 24.1453Z" fill="white"/>
<mask id="mask6_1179_4604" style="mask-type:luminance" maskUnits="userSpaceOnUse" x="12" y="21" width="6" height="8">
<path d="M14.0111 24.5867C13.9317 24.58 13.8759 24.5688 13.8401 24.5565V22.5251C13.8948 22.5162 13.9485 22.5139 14.0021 22.5139H14.1418C14.2893 22.5139 14.4301 22.5307 14.5642 22.5642C14.6983 22.5977 14.8156 22.6569 14.9173 22.7407C15.0178 22.8234 15.0961 22.9341 15.1553 23.0715C15.2123 23.2089 15.2402 23.3788 15.2402 23.581C15.2402 23.923 15.1486 24.1766 14.9676 24.3453C14.7876 24.5141 14.5519 24.5979 14.2636 24.5979C14.1764 24.5979 14.0926 24.5945 14.0122 24.5867M12.811 21.0702C12.4925 21.1071 12.2567 21.135 12.1025 21.1552V28.3411C12.4512 28.4004 12.7428 28.4305 12.9775 28.4305C13.0993 28.4305 13.2278 28.4238 13.3708 28.4115C13.5105 28.3981 13.6691 28.3747 13.8434 28.3423V25.9968C13.8982 26.0114 13.9898 26.0214 14.1206 26.0326C14.2513 26.0415 14.3798 26.046 14.5083 26.046C14.8301 26.046 15.1441 26.0069 15.4491 25.9276C15.7553 25.846 16.0257 25.713 16.2648 25.5242C16.5017 25.3365 16.6939 25.0862 16.8381 24.7688C16.9822 24.4537 17.0537 24.0593 17.0537 23.5821C17.0537 23.0458 16.9621 22.6089 16.7822 22.2737C16.6023 21.9396 16.3632 21.6792 16.0715 21.4937C15.7821 21.3105 15.4536 21.1842 15.0916 21.1172C14.7307 21.0524 14.3709 21.0166 14.0133 21.0166C13.5306 21.0166 13.1294 21.0356 12.8121 21.0736" fill="white"/>
</mask>
<g mask="url(#mask6_1179_4604)">
<path d="M17.0507 21.0132H12.1006V28.4294H17.0507V21.0132Z" fill="url(#paint3_linear_1179_4604)"/>
</g>
<mask id="mask7_1179_4604" style="mask-type:luminance" maskUnits="userSpaceOnUse" x="17" y="23" width="6" height="6">
<path d="M19.3247 26.7699C19.1839 26.5409 19.1135 26.2168 19.1135 25.7945C19.1135 25.3721 19.1839 25.0369 19.3247 24.8078C19.4677 24.5798 19.6845 24.4659 19.9795 24.4659C20.2745 24.4659 20.4935 24.5798 20.6388 24.8078C20.7829 25.0369 20.8544 25.3643 20.8544 25.7945C20.8544 26.2247 20.7829 26.5409 20.6388 26.7699C20.4946 26.9979 20.2756 27.1119 19.9795 27.1119C19.6834 27.1119 19.4677 26.9979 19.3247 26.7699ZM18.861 23.2412C18.5392 23.3742 18.2699 23.5597 18.0497 23.7999C17.8341 24.0424 17.6687 24.3329 17.5592 24.6715C17.4464 25.0089 17.3916 25.3844 17.3916 25.7933C17.3916 26.2023 17.4464 26.5643 17.5592 26.8951C17.6687 27.227 17.8341 27.513 18.0497 27.751C18.2688 27.9879 18.5392 28.1712 18.861 28.2985C19.1828 28.427 19.556 28.4907 19.9784 28.4907C20.4008 28.4907 20.784 28.427 21.1058 28.2985C21.4276 28.1712 21.6958 27.9879 21.9148 27.751C22.1327 27.5119 22.2981 27.227 22.4098 26.8951C22.5193 26.5643 22.5741 26.1956 22.5741 25.7933C22.5741 25.3911 22.5193 25.0089 22.4098 24.6715C22.2981 24.3329 22.1327 24.0424 21.9148 23.7999C21.6969 23.5585 21.4288 23.3742 21.1058 23.2412C20.784 23.1116 20.4063 23.0457 19.9784 23.0457C19.5504 23.0457 19.1828 23.1116 18.861 23.2412Z" fill="white"/>
</mask>
<g mask="url(#mask7_1179_4604)">
<path d="M22.574 23.0469H17.3926V28.492H22.574V23.0469Z" fill="url(#paint4_linear_1179_4604)"/>
</g>
<mask id="mask8_1179_4604" style="mask-type:luminance" maskUnits="userSpaceOnUse" x="23" y="23" width="5" height="6">
<path d="M24.5431 23.1675C24.2783 23.2469 24.0481 23.3642 23.8526 23.5139C23.6581 23.6648 23.5073 23.848 23.4011 24.0626C23.295 24.2782 23.2391 24.5173 23.2391 24.7777C23.2391 25.1934 23.3564 25.5219 23.5911 25.7632C23.8269 26.0057 24.123 26.1767 24.4783 26.2761L25.161 26.4672C25.2772 26.5007 25.3767 26.5409 25.4638 26.5834C25.5521 26.6281 25.5946 26.6929 25.5946 26.7801C25.5946 26.846 25.5734 26.9019 25.5298 26.941C25.4862 26.9812 25.4314 27.0136 25.3655 27.0371C25.2974 27.0594 25.2191 27.0762 25.132 27.0829C25.0448 27.0885 24.9621 27.0918 24.8817 27.0918C24.6459 27.0918 24.4113 27.0684 24.1755 27.017C23.9408 26.9667 23.7162 26.8918 23.5028 26.7912C23.2883 27.2605 23.1642 27.7231 23.1318 28.179C23.4402 28.293 23.7308 28.3735 24.0068 28.4215C24.2816 28.4673 24.58 28.4919 24.9018 28.4919C25.2895 28.4919 25.6348 28.4439 25.9343 28.35C26.2315 28.2561 26.484 28.1288 26.6874 27.9679C26.893 27.807 27.0472 27.6148 27.15 27.3946C27.255 27.1734 27.3087 26.9354 27.3087 26.6795C27.3087 26.4236 27.274 26.2202 27.2059 26.0448C27.1399 25.8727 27.0472 25.7241 26.931 25.6046C26.8125 25.4839 26.6729 25.3856 26.5075 25.3073C26.3432 25.2302 26.16 25.1643 25.9589 25.1107L25.3052 24.9397C25.2102 24.914 25.1264 24.8805 25.0538 24.8403C24.9789 24.8 24.9443 24.743 24.9443 24.6682C24.9443 24.495 25.1007 24.4067 25.4169 24.4067C25.6315 24.4067 25.8661 24.438 26.1209 24.4995C26.3745 24.5587 26.5935 24.6268 26.7768 24.7006C26.8707 24.5129 26.9522 24.2961 27.0271 24.0525C27.0997 23.8055 27.1444 23.5765 27.1567 23.3608C26.8628 23.2614 26.5645 23.1832 26.2617 23.1306C25.96 23.0759 25.6817 23.0491 25.427 23.0491C25.1063 23.0491 24.8124 23.0893 24.5465 23.1709" fill="white"/>
</mask>
<g mask="url(#mask8_1179_4604)">
<path d="M27.3067 23.0469H23.1299V28.492H27.3067V23.0469Z" fill="url(#paint5_linear_1179_4604)"/>
</g>
<mask id="mask9_1179_4604" style="mask-type:luminance" maskUnits="userSpaceOnUse" x="27" y="23" width="6" height="6">
<path d="M27.7473 23.1675C27.7149 23.3005 27.6914 23.4245 27.6825 23.5385C27.6724 23.6547 27.668 23.7642 27.668 23.8714C27.668 23.9787 27.6724 24.0904 27.6825 24.2089C27.6926 24.3251 27.7149 24.4514 27.7473 24.5855H29.2379V28.3589C29.4066 28.3846 29.5586 28.4058 29.7016 28.4193C29.8424 28.4338 29.9698 28.4382 30.0838 28.4382C30.1978 28.4382 30.3251 28.4327 30.4659 28.4193C30.6056 28.4047 30.7632 28.3846 30.9386 28.3589V24.5855H32.4292C32.4616 24.4514 32.4851 24.3251 32.494 24.2089C32.5052 24.0904 32.5085 23.9787 32.5085 23.8714C32.5085 23.7642 32.5052 23.6547 32.494 23.5385C32.484 23.4245 32.4616 23.3005 32.4292 23.1675H27.7484H27.7473Z" fill="white"/>
</mask>
<g mask="url(#mask9_1179_4604)">
<path d="M32.5063 23.1675H27.668V28.4405H32.5063V23.1675Z" fill="url(#paint6_linear_1179_4604)"/>
</g>
<defs>
<linearGradient id="paint0_linear_1179_4604" x1="25.6819" y1="29.2853" x2="7.93959" y2="10.352" gradientUnits="userSpaceOnUse">
<stop stop-color="#FABB00"/>
<stop offset="0.27" stop-color="#FABF00"/>
<stop offset="0.57" stop-color="#FBCC00"/>
<stop offset="0.89" stop-color="#FEE300"/>
<stop offset="1" stop-color="#FFED00"/>
</linearGradient>
<linearGradient id="paint1_linear_1179_4604" x1="16.1841" y1="27.7872" x2="7.40022" y2="47.9024" gradientUnits="userSpaceOnUse">
<stop stop-color="#5EC5ED"/>
<stop offset="0.25" stop-color="#3DB7E3"/>
<stop offset="0.57" stop-color="#1CA8D9"/>
<stop offset="0.83" stop-color="#07A0D3"/>
<stop offset="1" stop-color="#009DD1"/>
</linearGradient>
<linearGradient id="paint2_linear_1179_4604" x1="39.072" y1="17.8515" x2="16.5262" y2="19.4439" gradientUnits="userSpaceOnUse">
<stop stop-color="#5EC5ED"/>
<stop offset="0.25" stop-color="#3DB7E3"/>
<stop offset="0.57" stop-color="#1CA8D9"/>
<stop offset="0.83" stop-color="#07A0D3"/>
<stop offset="1" stop-color="#009DD1"/>
</linearGradient>
<linearGradient id="paint3_linear_1179_4604" x1="10.7876" y1="24.6602" x2="34.4079" y2="24.6602" gradientUnits="userSpaceOnUse">
<stop stop-color="#1FA22E"/>
<stop offset="0.21" stop-color="#149930"/>
<stop offset="0.65" stop-color="#058C34"/>
<stop offset="1" stop-color="#008836"/>
</linearGradient>
<linearGradient id="paint4_linear_1179_4604" x1="10.4423" y1="25.5307" x2="34.0869" y2="25.5307" gradientUnits="userSpaceOnUse">
<stop stop-color="#1FA22E"/>
<stop offset="0.21" stop-color="#149930"/>
<stop offset="0.65" stop-color="#058C34"/>
<stop offset="1" stop-color="#008836"/>
</linearGradient>
<linearGradient id="paint5_linear_1179_4604" x1="10.7892" y1="25.7195" x2="34.4096" y2="25.7195" gradientUnits="userSpaceOnUse">
<stop stop-color="#1FA22E"/>
<stop offset="0.21" stop-color="#149930"/>
<stop offset="0.65" stop-color="#058C34"/>
<stop offset="1" stop-color="#008836"/>
</linearGradient>
<linearGradient id="paint6_linear_1179_4604" x1="10.7482" y1="25.7248" x2="34.3685" y2="25.7248" gradientUnits="userSpaceOnUse">
<stop stop-color="#1FA22E"/>
<stop offset="0.21" stop-color="#149930"/>
<stop offset="0.65" stop-color="#058C34"/>
<stop offset="1" stop-color="#008836"/>
</linearGradient>
</defs>
</svg>
