<svg width="91" height="18" viewBox="0 0 91 18" fill="none" xmlns="http://www.w3.org/2000/svg">
<g clip-path="url(#clip0_1158_7305)">
<path d="M1.45483 0V4.33597H10.6117C6.81775 8.0729 0 14.8051 0 14.8051L3.0523 17.9144C3.0523 17.9144 11.0396 9.87005 15.3471 5.59113V17.8288H19.5689V0H1.45483Z" fill="#FF0033"/>
<path d="M14.0353 15.0047C14.0353 13.4358 12.7516 12.1521 11.1827 12.1521C9.61375 12.1521 8.33008 13.4358 8.33008 15.0047C8.33008 16.5737 9.61375 17.8573 11.1827 17.8573C12.7516 17.8573 14.0353 16.5737 14.0353 15.0047Z" fill="#FF0033"/>
<path d="M80.1867 7.47382C80.044 7.70203 79.7017 7.93024 79.2738 7.93024C78.7033 7.93024 78.5036 7.61645 78.5036 7.27414C78.5036 6.87477 78.7603 6.64656 79.2738 6.64656C79.7302 6.64656 79.9584 6.70361 80.1867 6.84624V7.47382ZM81.4989 8.92865V5.56257C81.4989 4.45005 80.6716 3.79395 79.4735 3.79395C78.6748 3.79395 78.1898 3.9651 77.5908 4.30742L78.1042 5.22025C78.5607 4.96352 78.8744 4.87794 79.4735 4.87794C79.9584 4.87794 80.1867 5.1632 80.1867 5.50551V5.76225C79.987 5.64815 79.6732 5.56257 79.2168 5.56257C78.0757 5.56257 77.1914 6.10456 77.1914 7.21708C77.1914 8.41518 78.1328 9.01423 79.0741 9.01423C79.5306 9.01423 79.9584 8.81455 80.1867 8.58634V8.92865H81.4989Z" fill="black"/>
<path d="M89.0589 8.92882V3.68001L87.6611 4.42169V3.13801L89.2871 2.28223H90.3996V8.95735H89.0589V8.92882Z" fill="black"/>
<path d="M32.1203 4.39312C32.1203 4.96365 31.778 5.24891 31.1789 5.24891H29.7812V3.53734H31.1789C31.7495 3.53734 32.1203 3.8226 32.1203 4.39312ZM33.5181 4.3646C33.5181 2.93829 32.4911 2.25366 31.2075 2.25366H28.4404V8.92878H29.7812V6.56111H31.0934C32.4911 6.56111 33.5181 5.90501 33.5181 4.3646Z" fill="black"/>
<path d="M36.8845 5.44854C36.6848 5.24886 36.4281 5.13475 36.1143 5.13475C35.6008 5.13475 35.2585 5.36296 35.2585 6.21874V8.92873H33.9463V3.93665H35.2585V4.27897C35.4867 4.05076 35.829 3.85107 36.2854 3.85107C36.7133 3.85107 37.0271 4.02223 37.1983 4.19339L36.8845 5.44854Z" fill="black"/>
<path d="M40.5924 6.41835C40.5924 7.10298 40.2786 7.75908 39.651 7.75908C39.0234 7.75908 38.7382 7.18856 38.7382 6.41835C38.7382 5.64814 39.0234 5.07762 39.651 5.07762C40.2786 5.07762 40.5924 5.67667 40.5924 6.41835ZM41.9331 6.41835C41.9331 4.87794 40.9632 3.79395 39.651 3.79395C38.3388 3.79395 37.3975 4.87794 37.3975 6.41835C37.3975 7.95876 38.3388 9.01423 39.651 9.01423C40.9632 9.04276 41.9331 7.95876 41.9331 6.41835Z" fill="black"/>
<path d="M44.9572 9.04277C43.8447 9.04277 42.8748 8.58635 42.3613 7.84467L43.3312 6.98889C43.7876 7.53088 44.3867 7.75909 45.0428 7.75909C45.8415 7.75909 46.2124 7.53088 46.2124 7.04594C46.2124 6.61805 45.9842 6.41836 44.729 6.1331C43.5024 5.84784 42.6466 5.44848 42.6466 4.13627C42.6466 2.93817 43.7021 2.16797 45.0428 2.16797C46.0697 2.16797 46.8399 2.56733 47.4675 3.22344L46.4976 4.1648C46.0697 3.73691 45.5848 3.48017 44.9857 3.48017C44.2726 3.48017 44.0444 3.79396 44.0444 4.07922C44.0444 4.50711 44.3296 4.62122 45.3851 4.87795C46.4406 5.13469 47.6101 5.477 47.6101 6.93184C47.5816 8.18699 46.7829 9.04277 44.9572 9.04277Z" fill="black"/>
<path d="M49.2075 3.50875C48.8081 3.50875 48.4658 3.16644 48.4658 2.76707C48.4658 2.3677 48.8081 2.02539 49.2075 2.02539C49.6069 2.02539 49.9492 2.3677 49.9492 2.76707C49.9492 3.16644 49.6069 3.50875 49.2075 3.50875ZM48.5514 8.92872V3.93664H49.8636V8.95725H48.5514V8.92872Z" fill="black"/>
<path d="M53.9429 5.84783H52.2314C52.2884 5.33436 52.5737 4.96352 53.0586 4.96352C53.6577 4.96352 53.9144 5.41994 53.9429 5.84783ZM55.2266 6.41835C55.2266 4.99204 54.4564 3.79395 53.1157 3.79395C51.8605 3.79395 50.8906 4.87794 50.8906 6.41835C50.8906 7.98729 51.8035 9.01423 53.2583 9.01423C53.9144 9.01423 54.6561 8.72897 55.0554 8.2155L54.1141 7.44529C53.9144 7.6735 53.6291 7.78761 53.2583 7.78761C52.7734 7.78761 52.2884 7.53087 52.2314 6.84624H55.2266C55.2266 6.76066 55.2266 6.61803 55.2266 6.41835Z" fill="black"/>
<path d="M59.2206 6.50403C59.2206 7.33129 58.9354 7.78771 58.4504 7.78771C58.0796 7.78771 57.7658 7.64508 57.5661 7.35982V5.47709C57.7658 5.22036 57.9655 5.0492 58.3648 5.0492C58.8783 5.0492 59.2206 5.47709 59.2206 6.50403ZM60.5614 6.47551C60.5614 4.59278 59.677 3.79405 58.6216 3.79405C58.1366 3.79405 57.8228 3.99373 57.5661 4.22194V2.05396H56.2539V8.92876H57.5661V8.6435C57.7943 8.8717 58.1937 9.04286 58.6216 9.04286C59.8482 9.04286 60.5614 7.98739 60.5614 6.47551Z" fill="black"/>
<path d="M64.2691 5.84783H62.5575C62.6146 5.33436 62.8998 4.96352 63.3848 4.96352C63.9553 4.96352 64.2406 5.41994 64.2691 5.84783ZM65.5528 6.41835C65.5528 4.99204 64.7826 3.79395 63.4418 3.79395C62.1867 3.79395 61.2168 4.87794 61.2168 6.41835C61.2168 7.98729 62.1296 9.01423 63.5845 9.01423C64.2406 9.01423 64.9822 8.72897 65.3816 8.2155L64.4402 7.44529C64.2406 7.6735 63.9553 7.78761 63.5845 7.78761C63.0995 7.78761 62.6146 7.53087 62.5575 6.84624H65.5528C65.5528 6.76066 65.5528 6.61803 65.5528 6.41835Z" fill="black"/>
<path d="M69.4896 8.92873V6.21874C69.4896 5.33443 69.1758 5.04917 68.6338 5.04917C68.0918 5.04917 67.778 5.30591 67.778 6.19022V8.92873H66.4658V3.93665H67.778V4.27897C68.0062 4.05076 68.4341 3.85107 68.9476 3.85107C70.2313 3.85107 70.8018 4.73538 70.8018 6.13317V8.95725H69.4896V8.92873Z" fill="black"/>
<path d="M73.9972 9.04277C72.8847 9.04277 71.9148 8.58635 71.4014 7.84467L72.3713 6.98889C72.8277 7.53088 73.4267 7.75909 74.0828 7.75909C74.8816 7.75909 75.2524 7.53088 75.2524 7.04594C75.2524 6.61805 75.0242 6.41836 73.769 6.1331C72.5424 5.84784 71.6866 5.44848 71.6866 4.13627C71.6866 2.93817 72.7421 2.16797 74.0828 2.16797C75.1098 2.16797 75.88 2.56733 76.5076 3.22344L75.5377 4.1648C75.1098 3.73691 74.6248 3.48017 74.0258 3.48017C73.3126 3.48017 73.0844 3.79396 73.0844 4.07922C73.0844 4.50711 73.3697 4.62122 74.4251 4.87795C75.4806 5.13469 76.6502 5.477 76.6502 6.93184C76.6217 8.18699 75.8229 9.04277 73.9972 9.04277Z" fill="black"/>
<path d="M33.4898 17.8289V13.3218V12.6086C33.4327 12.8654 33.233 13.3503 33.0904 13.7212L31.2933 18.0286L29.5246 13.7212C29.382 13.3788 29.2108 12.8654 29.1253 12.6086V13.3218V17.8289H28.4121V11.1538H29.2394L30.8083 15.1475C30.9795 15.5468 31.2077 16.1744 31.2933 16.4311C31.3788 16.1459 31.607 15.5183 31.7782 15.1475L33.3757 11.1538H34.1744V17.8289H33.4898Z" fill="black"/>
<path d="M38.7954 15.0047H36.0854C36.171 13.8922 36.6845 13.3502 37.4262 13.3502C38.3105 13.3502 38.7384 14.0349 38.7954 15.0047ZM39.4515 15.1759C39.4515 13.7496 38.7384 12.7227 37.4262 12.7227C36.2281 12.7227 35.3438 13.7211 35.3438 15.3185C35.3438 17.2868 36.4563 17.9429 37.3691 17.9429C38.1108 17.9429 38.5672 17.7433 39.1663 17.3724L38.8239 16.8589C38.3675 17.1727 38.0252 17.3439 37.4547 17.3439C36.6274 17.3439 36.1425 16.6593 36.0569 15.6038H39.3945C39.4515 15.4612 39.4515 15.3471 39.4515 15.1759Z" fill="black"/>
<path d="M43.6448 16.6023C43.3025 17.0302 42.846 17.3155 42.3326 17.3155C41.5338 17.3155 41.0774 16.6594 41.0774 15.4042C41.0774 14.0635 41.4768 13.3503 42.304 13.3503C42.9031 13.3503 43.388 13.6926 43.6448 14.092V16.6023ZM44.3579 17.8289V11.1538H43.6448V13.4074C43.3025 13.008 42.8746 12.7513 42.247 12.7513C41.1915 12.7513 40.3643 13.6641 40.3643 15.4327C40.3643 17.2014 41.163 17.9716 42.1614 17.9716C42.846 17.9716 43.3025 17.6292 43.6733 17.2584V17.8575H44.3579V17.8289Z" fill="black"/>
<path d="M46.3269 11.9239C46.0417 11.9239 45.8135 11.6957 45.8135 11.4104C45.8135 11.1252 46.0417 10.897 46.3269 10.897C46.5837 10.897 46.8119 11.1252 46.8119 11.4104C46.8119 11.6957 46.5837 11.9239 46.3269 11.9239ZM45.9276 17.8288V12.8368H46.6407V17.8288H45.9276Z" fill="black"/>
<path d="M51.1188 16.6022C50.805 17.0301 50.32 17.3439 49.6924 17.3439C49.0934 17.3439 48.6655 17.0301 48.6655 16.2884C48.6655 15.6608 49.0934 15.3185 49.8351 15.3185C50.4341 15.3185 50.805 15.4326 51.1188 15.6038V16.6022ZM51.8319 17.8288V14.3486C51.8319 13.1791 51.1473 12.7227 50.0633 12.7227C49.4072 12.7227 48.8367 12.8938 48.3802 13.122L48.637 13.6925C49.0363 13.4643 49.4642 13.3217 50.0062 13.3217C50.7479 13.3217 51.0902 13.6925 51.0902 14.4342V15.0333C50.805 14.8621 50.3486 14.748 49.8351 14.748C48.8367 14.748 47.9238 15.233 47.9238 16.3455C47.9238 17.5436 48.7511 17.9429 49.5213 17.9429C50.2344 17.9429 50.7194 17.6006 51.0902 17.2298V17.8288H51.8319Z" fill="black"/>
<path d="M85.7495 8.87173C85.7495 8.87173 84.9793 9.04289 84.4658 9.04289C83.6671 9.04289 83.1251 8.41531 83.1251 7.531V5.16333H82.2979V3.93671H83.1251V2.25366H84.4373V3.93671H85.6354V5.16333H84.4373V7.18869C84.4373 7.78774 84.6085 7.81626 84.9223 7.81626C85.1505 7.81626 85.5498 7.75921 85.721 7.73068V8.87173H85.7495Z" fill="black"/>
<path d="M87.4046 9.04287C86.9482 9.04287 86.5488 8.6435 86.5488 8.18708C86.5488 7.73066 86.9482 7.3313 87.4046 7.3313C87.861 7.3313 88.2604 7.73066 88.2604 8.18708C88.2319 8.6435 87.861 9.04287 87.4046 9.04287Z" fill="black"/>
<path d="M56.4247 17.943C55.5118 17.943 54.6846 17.5436 54.1426 17.0016L54.656 16.4311C55.1695 16.9161 55.7686 17.2584 56.4532 17.2584C57.366 17.2584 57.908 16.802 57.908 16.0888C57.908 15.4612 57.5372 15.0904 56.282 14.6625C54.8272 14.149 54.3137 13.6641 54.3137 12.6942C54.3137 11.6102 55.1695 10.9541 56.4247 10.9541C57.3375 10.9541 57.908 11.2394 58.4786 11.6673L57.9936 12.2663C57.5087 11.8669 57.0522 11.6387 56.3676 11.6387C55.4263 11.6387 55.0554 12.0951 55.0554 12.6371C55.0554 13.2077 55.3122 13.5215 56.6529 14.0064C58.1648 14.5484 58.6212 15.0619 58.6212 16.0603C58.6782 17.1157 57.851 17.943 56.4247 17.943Z" fill="black"/>
<path d="M59.9619 17.829V11.0398H64.0697V11.7244H60.7321V13.8639H62.6719V14.5485H60.7321V17.1444H64.2123V17.829H59.9619Z" fill="black"/>
</g>
<defs>
<clipPath id="clip0_1158_7305">
<rect width="90.3708" height="18" fill="white"/>
</clipPath>
</defs>
</svg>
