<svg width="80" height="25" viewBox="0 0 74 19" fill="none" xmlns="http://www.w3.org/2000/svg">
<g clip-path="url(#clip0_1013_4156)">
<path d="M19.4492 6.43962H26.9438V7.84016H24.0003V15.6979H22.3796V7.84016H19.4492V6.43962ZM26.6198 8.99377H28.0073V10.2905H28.0334C28.0765 10.1089 28.1608 9.93182 28.2862 9.75872C28.4116 9.58561 28.5625 9.42818 28.7402 9.28512C28.9172 9.14271 29.1139 9.02774 29.3301 8.94152C29.5463 8.85529 29.7664 8.81217 29.9912 8.81217C30.1643 8.81217 30.2832 8.81675 30.3478 8.82524C30.4125 8.83373 30.4798 8.84288 30.549 8.85137V10.2774C30.4452 10.2604 30.3393 10.2447 30.2315 10.2317C30.1231 10.2186 30.0173 10.2121 29.9141 10.2121C29.6632 10.2121 29.4281 10.2617 29.2073 10.361C28.9871 10.4603 28.7944 10.6073 28.6305 10.8019C28.4659 10.9966 28.3365 11.2363 28.2411 11.5218C28.1458 11.8073 28.0987 12.1358 28.0987 12.5075V15.6973H26.6205V8.99377H26.6198ZM37.3322 15.6973H35.8801V14.7638H35.854C35.6724 15.1009 35.4019 15.3713 35.0433 15.5745C34.6847 15.7776 34.3195 15.8795 33.9478 15.8795C33.0659 15.8795 32.4284 15.6614 32.0351 15.225C31.6419 14.7886 31.4453 14.1295 31.4453 13.2477V8.99443H32.9235V13.1046C32.9235 13.6925 33.0359 14.1073 33.2606 14.3497C33.4853 14.592 33.8008 14.7129 34.2071 14.7129C34.5181 14.7129 34.7774 14.6652 34.9852 14.5705C35.1929 14.4757 35.3614 14.3477 35.4908 14.1877C35.6208 14.0276 35.7135 13.8356 35.7697 13.6109C35.8259 13.3861 35.854 13.1438 35.854 12.8845V8.99443H37.3322V15.6979V15.6973ZM39.8479 13.5449C39.891 13.9773 40.0556 14.2798 40.3404 14.4529C40.6259 14.626 40.9668 14.7122 41.3647 14.7122C41.5032 14.7122 41.6606 14.7018 41.8383 14.6796C42.0153 14.658 42.1819 14.6168 42.3373 14.5561C42.4928 14.496 42.6202 14.4072 42.7201 14.2902C42.8194 14.1733 42.8645 14.0204 42.856 13.8297C42.8475 13.6396 42.7783 13.4841 42.6483 13.3626C42.5183 13.2418 42.3517 13.1444 42.1492 13.0706C41.946 12.9975 41.7148 12.9348 41.4555 12.8825C41.1961 12.8309 40.9322 12.7747 40.6644 12.714C40.3874 12.6539 40.1216 12.58 39.8668 12.4932C39.612 12.4069 39.3827 12.29 39.1796 12.143C38.9764 11.9961 38.8144 11.8079 38.6936 11.5793C38.5727 11.3507 38.512 11.0671 38.512 10.7301C38.512 10.3669 38.6008 10.0625 38.7779 9.8162C38.9549 9.56993 39.1796 9.37135 39.452 9.2198C39.7244 9.0689 40.0268 8.96242 40.3593 8.90232C40.6918 8.84222 41.01 8.81152 41.3124 8.81152C41.658 8.81152 41.9885 8.8481 42.3047 8.92192C42.6202 8.99574 42.9057 9.11462 43.1604 9.27859C43.4152 9.4432 43.6275 9.65681 43.796 9.92072C43.9646 10.1846 44.0704 10.5021 44.1135 10.8738H42.5705C42.5013 10.5197 42.3393 10.282 42.0845 10.1605C41.8291 10.0396 41.5378 9.97886 41.2092 9.97886C41.1053 9.97886 40.9825 9.98735 40.8395 10.005C40.6971 10.0226 40.5625 10.0546 40.4377 10.1023C40.3123 10.15 40.2065 10.2192 40.1203 10.31C40.034 10.4008 39.9903 10.5197 39.9903 10.6667C39.9903 10.8483 40.053 10.9953 40.1784 11.1077C40.3038 11.22 40.4678 11.3128 40.6709 11.3866C40.8741 11.4604 41.1053 11.5225 41.3647 11.5747C41.624 11.6263 41.8918 11.6832 42.1688 11.7433C42.4366 11.804 42.7005 11.8772 42.9599 11.9634C43.2192 12.0496 43.4505 12.1665 43.6536 12.3135C43.8568 12.4605 44.0207 12.6467 44.1462 12.8714C44.2716 13.0961 44.3343 13.3731 44.3343 13.701C44.3343 14.0988 44.2435 14.4359 44.0619 14.7122C43.8803 14.9892 43.6445 15.2139 43.3551 15.3864C43.0657 15.5595 42.7437 15.6849 42.3889 15.7626C42.0342 15.8404 41.6841 15.8795 41.3385 15.8795C40.9146 15.8795 40.524 15.8319 40.1653 15.7371C39.8067 15.6418 39.4951 15.4974 39.2319 15.3027C38.9679 15.1081 38.7609 14.8664 38.6093 14.5763C38.4578 14.287 38.3781 13.9434 38.3696 13.5455H39.8479V13.5449ZM44.723 8.99377H45.838V6.98376H47.3163V8.99377H48.6522V10.0958H47.3163V13.6749C47.3163 13.8303 47.3228 13.9649 47.3359 14.0766C47.349 14.189 47.379 14.2843 47.4267 14.3621C47.4744 14.4398 47.5456 14.498 47.641 14.5371C47.7357 14.5763 47.8657 14.5953 48.0296 14.5953C48.1335 14.5953 48.2374 14.5933 48.3406 14.5888C48.4445 14.5842 48.5483 14.5692 48.6515 14.5437V15.6849C48.4869 15.7019 48.3275 15.7195 48.1721 15.7365C48.0166 15.7535 47.8565 15.7626 47.6926 15.7626C47.3032 15.7626 46.9903 15.726 46.7526 15.6522C46.5148 15.5791 46.3286 15.4706 46.1947 15.3282C46.0608 15.1858 45.97 15.0062 45.9223 14.7899C45.8746 14.5737 45.8465 14.3275 45.838 14.0511V10.0964H44.723V8.99443V8.99377ZM49.6889 8.99377H51.0894V9.90112H51.1155C51.3233 9.51245 51.6127 9.23351 51.9843 9.06498C52.356 8.89644 52.7578 8.81217 53.1902 8.81217C53.7174 8.81217 54.1779 8.90493 54.5712 9.09111C54.9644 9.27728 55.291 9.53204 55.5504 9.85605C55.8097 10.1801 56.0044 10.5583 56.1337 10.9907C56.263 11.4232 56.3284 11.8857 56.3284 12.3782C56.3284 12.8276 56.2702 13.2646 56.1533 13.6879C56.0364 14.1119 55.8593 14.4855 55.6216 14.8095C55.3838 15.1336 55.0833 15.3929 54.7201 15.5875C54.3569 15.7822 53.929 15.8795 53.4365 15.8795C53.2203 15.8795 53.004 15.86 52.7885 15.8214C52.5723 15.7822 52.3645 15.7195 52.1659 15.6333C51.9667 15.547 51.7831 15.4367 51.6146 15.3027C51.4461 15.1688 51.3056 15.0107 51.1933 14.8291H51.1671V18.1744H49.6889V8.99377ZM54.8494 12.3521C54.8494 12.0496 54.8102 11.7557 54.7325 11.4702C54.6548 11.1847 54.5378 10.9319 54.3824 10.7118C54.2269 10.4916 54.0322 10.3146 53.799 10.1801C53.5658 10.0461 53.2974 9.97886 52.9949 9.97886C52.3724 9.97886 51.9033 10.1951 51.5878 10.6269C51.2723 11.0593 51.1142 11.6342 51.1142 12.3514C51.1142 12.6885 51.1554 13.002 51.2377 13.2914C51.32 13.5808 51.4428 13.8297 51.6074 14.0368C51.7714 14.2445 51.968 14.4085 52.1973 14.5293C52.4259 14.6508 52.6918 14.7109 52.9949 14.7109C53.332 14.7109 53.6174 14.6417 53.8506 14.5032C54.0838 14.3647 54.2766 14.1857 54.4275 13.9649C54.5783 13.7441 54.6868 13.4939 54.7515 13.213C54.8161 12.9321 54.8488 12.6447 54.8488 12.3508L54.8494 12.3521ZM57.4559 6.43896H58.9341V7.83951H57.4559V6.43896ZM57.4559 8.99312H58.9341V15.6966H57.4559V8.99312ZM60.255 6.43896H61.7333V15.6973H60.255V6.43962V6.43896ZM66.2582 15.8789C65.7219 15.8789 65.2444 15.7901 64.8257 15.613C64.4063 15.436 64.0522 15.1917 63.7622 14.8807C63.4722 14.5698 63.252 14.1981 63.1011 13.7657C62.9496 13.3332 62.8745 12.8577 62.8745 12.3397C62.8745 11.8216 62.9502 11.3585 63.1011 10.9261C63.252 10.4936 63.4728 10.1219 63.7622 9.81097C64.0516 9.50003 64.4063 9.25572 64.8257 9.0787C65.2451 8.90167 65.7226 8.81283 66.2582 8.81283C66.7939 8.81283 67.2714 8.90167 67.6908 9.0787C68.1102 9.25572 68.4642 9.50003 68.7542 9.81097C69.0436 10.1219 69.2644 10.4943 69.4153 10.9261C69.5662 11.3585 69.642 11.8295 69.642 12.3397C69.642 12.8498 69.5662 13.3339 69.4153 13.7657C69.2638 14.1981 69.0436 14.5698 68.7542 14.8807C68.4642 15.1917 68.1102 15.436 67.6908 15.613C67.2714 15.7901 66.7939 15.8789 66.2582 15.8789ZM66.2582 14.7116C66.5868 14.7116 66.8723 14.6423 67.114 14.5038C67.3557 14.3653 67.5549 14.1844 67.7104 13.959C67.8658 13.7343 67.9802 13.4815 68.054 13.2006C68.1271 12.9197 68.1644 12.6323 68.1644 12.3383C68.1644 12.0444 68.1278 11.7681 68.054 11.4826C67.9808 11.1971 67.8658 10.9443 67.7104 10.7242C67.5549 10.5041 67.3557 10.3244 67.114 10.1859C66.8716 10.0474 66.5868 9.9782 66.2582 9.9782C65.9296 9.9782 65.6442 10.0474 65.4025 10.1859C65.1601 10.3244 64.9616 10.5034 64.8061 10.7242C64.6506 10.945 64.5356 11.1978 64.4625 11.4826C64.3887 11.7681 64.3521 12.0529 64.3521 12.3383C64.3521 12.6238 64.3887 12.9197 64.4625 13.2006C64.5356 13.4815 64.6506 13.7343 64.8061 13.959C64.9616 14.1837 65.1601 14.3653 65.4025 14.5038C65.6442 14.6423 65.9296 14.7116 66.2582 14.7116ZM70.0705 8.99312H71.1856V6.98311H72.6639V8.99312H73.9997V10.0951H72.6639V13.6742C72.6639 13.8297 72.6704 13.9643 72.6835 14.076C72.6965 14.1883 72.7266 14.2837 72.7743 14.3614C72.822 14.4392 72.8932 14.4973 72.9885 14.5365C73.0832 14.5757 73.2132 14.5946 73.3772 14.5946C73.4811 14.5946 73.5849 14.5927 73.6881 14.5881C73.792 14.5835 73.8959 14.5685 73.9991 14.543V15.6842C73.8345 15.7012 73.6751 15.7189 73.5196 15.7358C73.3641 15.7528 73.2041 15.762 73.0401 15.762C72.6508 15.762 72.3379 15.7254 72.1001 15.6516C71.8623 15.5784 71.6762 15.47 71.5423 15.3276C71.4083 15.1852 71.3175 15.0055 71.2699 14.7893C71.2222 14.5731 71.1941 14.3268 71.1856 14.0505V10.0958H70.0705V8.99377V8.99312Z" fill="white"/>
<path d="M17.7236 6.43961L10.9535 6.4383L8.86181 0L6.77015 6.43765L0 6.43635L5.47739 10.4172L3.38573 16.8568L8.86247 12.8773L14.3379 16.8568L12.2462 10.4191L17.7236 6.43961Z" fill="#00B67A"/>
<path d="M12.7203 11.8785L12.2461 10.4192L8.8623 12.8773L12.7203 11.8785Z" fill="#005128"/>
</g>
<defs>
<clipPath id="clip0_1013_4156">
<rect width="74" height="18.1744" fill="white"/>
</clipPath>
</defs>
</svg>
